<svg xmlns="http://www.w3.org/2000/svg" xmlns:xlink="http://www.w3.org/1999/xlink" width="500" zoomAndPan="magnify" viewBox="0 0 375 374.999991" height="500" preserveAspectRatio="xMidYMid meet" version="1.0"><defs><clipPath id="812e892ac1"><path d="M 27.976562 3.078125 L 346.726562 3.078125 L 346.726562 135 L 27.976562 135 Z M 27.976562 3.078125 " clip-rule="nonzero"/></clipPath><clipPath id="492c9264bf"><path d="M 187 95 L 346.726562 95 L 346.726562 372 L 187 372 Z M 187 95 " clip-rule="nonzero"/></clipPath><clipPath id="9bc0ffd311"><path d="M 27.976562 95 L 188 95 L 188 372 L 27.976562 372 Z M 27.976562 95 " clip-rule="nonzero"/></clipPath></defs><g clip-path="url(#812e892ac1)"><path fill="#e52c3f" d="M 27.960938 95.425781 L 95.128906 134.257812 L 187.335938 80.953125 L 279.550781 134.257812 L 279.550781 134.261719 L 346.722656 95.425781 L 187.339844 3.285156 L 27.960938 95.425781 " fill-opacity="1" fill-rule="nonzero"/></g><g clip-path="url(#492c9264bf)"><path fill="#bf1b2c" d="M 279.550781 240.878906 L 187.339844 294.195312 L 187.339844 371.859375 L 346.722656 279.71875 L 346.722656 95.425781 L 279.550781 134.261719 L 279.550781 240.878906 " fill-opacity="1" fill-rule="nonzero"/></g><g clip-path="url(#9bc0ffd311)"><path fill="#f57461" d="M 187.335938 294.195312 L 95.128906 240.878906 L 95.128906 134.257812 L 27.960938 95.425781 L 27.960938 279.71875 L 187.339844 371.859375 L 187.335938 294.195312 " fill-opacity="1" fill-rule="nonzero"/></g><path fill="#bf1b2c" d="M 132.085938 219.511719 L 132.085938 155.628906 L 187.335938 123.683594 L 187.335938 80.953125 L 95.128906 134.257812 L 95.128906 240.878906 L 132.085938 219.511719 " fill-opacity="1" fill-rule="nonzero"/><path fill="#f57461" d="M 187.335938 123.683594 L 242.59375 155.628906 L 242.59375 219.511719 L 279.550781 240.878906 L 279.550781 134.257812 L 187.335938 80.953125 L 187.335938 123.683594 " fill-opacity="1" fill-rule="nonzero"/><path fill="#e52c3f" d="M 279.550781 240.878906 L 242.59375 219.511719 L 187.335938 251.460938 L 132.085938 219.511719 L 95.128906 240.878906 L 187.335938 294.195312 L 187.339844 371.859375 L 187.339844 294.195312 L 279.550781 240.878906 " fill-opacity="1" fill-rule="nonzero"/><path fill="#f57461" d="M 187.335938 187.578125 L 132.085938 155.628906 L 132.085938 219.511719 L 187.335938 251.460938 L 187.335938 187.578125 " fill-opacity="1" fill-rule="nonzero"/><path fill="#e52c3f" d="M 187.335938 187.578125 L 242.59375 155.628906 L 187.335938 123.683594 L 132.085938 155.628906 L 187.335938 187.578125 " fill-opacity="1" fill-rule="nonzero"/><path fill="#bf1b2c" d="M 242.59375 155.628906 L 187.335938 187.578125 L 187.335938 251.460938 L 242.59375 219.511719 L 242.59375 155.628906 " fill-opacity="1" fill-rule="nonzero"/></svg>